<?plantuml 1.2026.1?><svg xmlns="http://www.w3.org/2000/svg" xmlns:xlink="http://www.w3.org/1999/xlink" contentStyleType="text/css" data-diagram-type="DESCRIPTION" height="144px" preserveAspectRatio="none" style="width:829px;height:144px;" version="1.1" viewBox="0 0 829 144" width="829px" zoomAndPan="magnify"><defs/><g><!--entity image--><g class="entity" data-qualified-name="image" data-source-line="43" id="ent0002"><rect fill="#1A237E" height="36.2969" rx="2.5" ry="2.5" style="stroke:#303F9F;stroke-width:0.5;" width="100.042" x="7" y="7"/><text fill="#FFFFFF" font-family="Arial" font-size="14" lengthAdjust="spacing" textLength="80.042" x="17" y="29.9951">Built Image</text></g><!--entity syft--><g class="entity" data-qualified-name="syft" data-source-line="44" id="ent0003"><rect fill="#1A237E" height="36.2969" rx="2.5" ry="2.5" style="stroke:#303F9F;stroke-width:0.5;" width="100.9922" x="333.12" y="7"/><text fill="#FFFFFF" font-family="Arial" font-size="14" lengthAdjust="spacing" textLength="80.9922" x="343.12" y="29.9951">Syft Library</text></g><g class="entity" data-qualified-name="GMN4" data-source-line="47" id="ent0005"><path d="M259.04,78.7 L259.04,137.5906 A0,0 0 0 0 259.04,137.5906 L508.1962,137.5906 A0,0 0 0 0 508.1962,137.5906 L508.1962,88.7 L498.1962,78.7 L387.62,78.7 L383.62,43.42 L379.62,78.7 L259.04,78.7 A0,0 0 0 0 259.04,78.7" fill="#4E342E" style="stroke:#FF8F00;stroke-width:0.5;"/><path d="M498.1962,78.7 L498.1962,88.7 L508.1962,88.7 L498.1962,78.7" fill="#4E342E" style="stroke:#FF8F00;stroke-width:0.5;"/><text fill="#FFEB3B" font-family="Arial" font-size="14" font-weight="bold" lengthAdjust="spacing" textLength="228.1563" x="265.04" y="96.6951">Integrated SBOM Generation</text><text fill="#FFEB3B" font-family="Arial" font-size="14" lengthAdjust="spacing" textLength="183.7773" x="265.04" y="112.992">No external dependencies</text><text fill="#FFEB3B" font-family="Arial" font-size="14" lengthAdjust="spacing" textLength="91.7041" x="265.04" y="129.2889">Works offline</text></g><!--entity sbom--><g class="entity" data-qualified-name="sbom" data-source-line="52" id="ent0007"><rect fill="#1A237E" height="36.2969" rx="2.5" ry="2.5" style="stroke:#303F9F;stroke-width:0.5;" width="135.0283" x="688.2" y="7"/><text fill="#FFFFFF" font-family="Arial" font-size="14" lengthAdjust="spacing" textLength="115.0283" x="698.2" y="29.9951">CycloneDX JSON</text></g><!--link image to syft--><g class="link" data-entity-1="ent0002" data-entity-2="ent0003" data-link-type="dependency" data-source-line="56" id="lnk8"><path d="M107.32,25.14 C168.33,25.14 265.63,25.14 326.86,25.14" fill="none" id="image-to-syft" style="stroke:#7986CB;stroke-width:1;"/><polygon fill="#7986CB" points="332.86,25.14,323.86,21.14,327.86,25.14,323.86,29.14,332.86,25.14" style="stroke:#7986CB;stroke-width:1;"/><text fill="#FFFFFF" font-family="Arial" font-size="14" lengthAdjust="spacing" textLength="90.5762" x="138.04" y="21.1351">Scans locally</text></g><!--link syft to sbom--><g class="link" data-entity-1="ent0003" data-entity-2="ent0007" data-link-type="dependency" data-source-line="58" id="lnk9"><path d="M434.53,25.14 C499.94,25.14 608.87,25.14 681.78,25.14" fill="none" id="syft-to-sbom" style="stroke:#7986CB;stroke-width:1;"/><polygon fill="#7986CB" points="687.78,25.14,678.78,21.14,682.78,25.14,678.78,29.14,687.78,25.14" style="stroke:#7986CB;stroke-width:1;"/><text fill="#FFFFFF" font-family="Arial" font-size="14" lengthAdjust="spacing" textLength="118.7197" x="539.2" y="21.1351">Generates SBOM</text></g><?plantuml-src ZPHDRnen443l_XMZz8OKYGJK93rK2gIjKhNGTbKbrrdlcBeOczhUjlJNTzXT223azPx0yvWldZSijLsZnnLy8ndHBWnDK2uNtjMscZhZFBowmklH3OcmHwTkjNQMRCn03ORGZytBdro-dxkNKV_MSTDF5X5ZnYZV0qaC6M11lsgoCeFyWZvggTUOivztDcQDyu0Hown6-TpmBhMp6Nl_MbETaNFcgfpAwAkSzSWbBZBIlGZfV4M-mqR3aRfJPsLCOus8IQIJCCdi1KnIhNn9P2TUEizEkYHrA5mIx6HBCdlHUfR-8baIR0LB8erSwMfRiNfMq4gLX2fIM9lutjdO8QfvpYCpN17SUutcVBpG_mYkneTkUE_-T9blxcvVo_9eoZElep6DnjTqIXqEeTIj6WvFYAC9g1mTrZcj4JtQm26-8CAGYX0TUBtu4Q7IllqBXV2xgmONargR28yhtkO5O02z_NG851jEyacN7lsc8G8V266vBoXTZ6ub00Q3HnjfuVaQL51Cvf_X0rdYhrnkC61Wve3-Hl8M3IzrJRPYppK53ZqvlmpWb3BQak08R7CVDJdTICDt_k4PFXRpMTj5oONvQVg5oyktJL_m1Wh92m3Z91gp4Q8vRSBy0mvtVL5esXJYFm00?></g></svg>